<?xml version="1.0" standalone="no"?>
<!DOCTYPE svg PUBLIC "-//W3C//DTD SVG 20010904//EN"
 "http://www.w3.org/TR/2001/REC-SVG-20010904/DTD/svg10.dtd">
<svg version="1.0" xmlns="http://www.w3.org/2000/svg"
 width="1200.000000pt" height="675.000000pt" viewBox="0 0 1200.000000 675.000000"
 preserveAspectRatio="xMidYMid meet">

<g transform="translate(0.000000,675.000000) scale(0.100000,-0.100000)"
fill="#000000" stroke="none">
<path d="M1942 4738 c-19 -19 -14 -29 8 -16 20 13 27 28 12 28 -4 0 -13 -5
-20 -12z"/>
<path d="M1953 4705 c-24 -22 -43 -43 -43 -47 0 -4 -19 -25 -42 -47 -23 -23
-39 -43 -37 -46 3 -2 47 37 98 89 51 51 86 92 79 92 -7 -1 -32 -19 -55 -41z"/>
<path d="M2060 4735 c7 -8 16 -12 21 -9 16 9 10 20 -12 21 -17 2 -18 -1 -9
-12z"/>
<path d="M2130 4730 c14 -10 26 -17 29 -15 6 7 -27 35 -41 35 -7 0 -2 -9 12
-20z"/>
<path d="M7710 4740 c-23 -5 -27 -8 -12 -9 12 0 22 -5 22 -11 0 -6 84 -11 218
-13 l217 -3 -228 1 c-125 0 -227 -4 -227 -8 0 -4 107 -7 237 -7 161 1 239 -2
241 -9 6 -17 22 -13 22 6 0 9 3 14 6 10 3 -3 6 -66 7 -139 l0 -133 6 130 c5
103 3 134 -8 148 -8 9 -10 17 -5 17 5 0 0 6 -10 12 -15 8 -21 8 -24 0 -3 -9
-64 -12 -218 -12 -191 0 -244 6 -201 23 17 7 -1 6 -43 -3z m485 -30 c3 -5 -1
-10 -9 -10 -9 0 -16 5 -16 10 0 6 4 10 9 10 6 0 13 -4 16 -10z"/>
<path d="M8223 4726 c7 -14 13 -23 15 -21 7 6 -9 45 -18 45 -4 0 -3 -11 3 -24z"/>
<path d="M3680 4733 c0 -8 411 -6 419 2 2 3 -91 5 -207 5 -117 0 -212 -3 -212
-7z"/>
<path d="M4118 4719 c-16 -16 -16 -19 -2 -19 18 0 46 25 37 34 -9 9 -16 6 -35
-15z"/>
<path d="M2100 4700 c11 -20 30 -28 30 -12 0 11 -22 32 -32 32 -5 0 -4 -9 2
-20z"/>
<path d="M3680 4699 c0 -5 5 -7 10 -4 6 3 10 8 10 11 0 2 -4 4 -10 4 -5 0 -10
-5 -10 -11z"/>
<path d="M3803 4703 c54 -2 139 -2 190 0 51 1 7 3 -98 3 -104 0 -146 -2 -92
-3z"/>
<path d="M2151 4688 c-1 -10 -5 -18 -11 -18 -5 0 6 -16 26 -36 19 -20 38 -33
42 -29 4 4 -2 14 -14 24 -11 9 -26 30 -32 46 -6 18 -11 23 -11 13z"/>
<path d="M7683 4640 c0 -30 2 -43 4 -27 2 15 2 39 0 55 -2 15 -4 2 -4 -28z"/>
<path d="M1856 4651 c-10 -11 -16 -24 -15 -29 2 -5 14 4 27 20 26 31 15 39
-12 9z"/>
<path d="M2208 4653 c23 -16 31 -63 10 -63 -6 0 5 -16 25 -37 20 -20 40 -33
45 -29 4 4 -6 19 -23 32 -24 19 -29 30 -27 54 4 35 -12 60 -37 59 -12 0 -11
-4 7 -16z"/>
<path d="M1774 4565 c-23 -36 -14 -38 14 -4 13 16 19 29 13 29 -6 0 -18 -11
-27 -25z"/>
<path d="M2280 4582 c0 -4 9 -13 20 -20 16 -10 20 -10 20 2 0 8 -7 17 -16 20
-20 8 -24 8 -24 -2z"/>
<path d="M1781 4524 c-43 -46 -35 -54 8 -8 19 19 31 37 29 39 -3 3 -19 -11
-37 -31z"/>
<path d="M2310 4526 c0 -8 -5 -16 -11 -18 -7 -2 -6 -8 3 -16 13 -10 15 -7 16
18 0 17 -1 30 -4 30 -2 0 -4 -6 -4 -14z"/>
<path d="M1706 4494 c-11 -7 -16 -17 -13 -21 4 -4 15 1 24 10 22 21 14 30 -11
11z"/>
<path d="M2338 4492 c-3 -11 8 -34 28 -58 19 -21 34 -34 34 -28 0 5 -6 16 -12
23 -10 11 -10 13 0 7 6 -4 12 -3 12 2 0 5 -9 12 -20 15 -21 5 -37 33 -26 44 3
3 15 -2 26 -12 17 -15 20 -16 20 -3 0 30 -55 38 -62 10z"/>
<path d="M8180 4495 c0 -8 5 -15 10 -15 6 0 10 7 10 15 0 8 -4 15 -10 15 -5 0
-10 -7 -10 -15z"/>
<path d="M8233 4470 c0 -25 2 -35 4 -22 2 12 2 32 0 45 -2 12 -4 2 -4 -23z"/>
<path d="M1725 4470 c-3 -5 -1 -10 4 -10 6 0 11 5 11 10 0 6 -2 10 -4 10 -3 0
-8 -4 -11 -10z"/>
<path d="M1696 4433 c-6 -14 -5 -15 5 -6 7 7 10 15 7 18 -3 3 -9 -2 -12 -12z"/>
<path d="M1615 4409 c-16 -16 -17 -22 -6 -28 10 -7 4 -17 -25 -44 -41 -37 -61
-42 -29 -7 10 11 14 20 9 20 -5 0 -18 -10 -28 -21 -15 -18 -15 -23 -5 -30 11
-6 7 -14 -15 -31 -16 -13 -36 -32 -45 -42 -9 -10 -24 -26 -35 -35 -10 -9 -29
-27 -41 -40 -34 -35 -38 -39 -69 -66 -16 -14 -35 -37 -43 -52 -8 -16 59 45
149 134 90 89 170 168 178 175 9 7 22 21 29 31 12 15 12 17 -3 11 -21 -8 -21
4 1 28 22 24 3 22 -22 -3z"/>
<path d="M1666 4415 c-3 -8 -1 -15 4 -15 6 0 10 7 10 15 0 8 -2 15 -4 15 -2 0
-6 -7 -10 -15z"/>
<path d="M8172 4355 c0 -44 3 -91 7 -105 5 -14 6 18 4 70 -6 121 -11 139 -11
35z"/>
<path d="M2460 4411 c0 -6 5 -13 10 -16 6 -3 10 1 10 9 0 9 -4 16 -10 16 -5 0
-10 -4 -10 -9z"/>
<path d="M2418 4384 c6 -11 20 -28 33 -39 l23 -20 -20 34 c-20 37 -55 60 -36
25z"/>
<path d="M2506 4295 c4 -8 10 -15 15 -15 4 0 6 7 3 15 -4 8 -10 15 -15 15 -4
0 -6 -7 -3 -15z"/>
<path d="M2551 4284 c0 -11 3 -14 6 -6 3 7 2 16 -1 19 -3 4 -6 -2 -5 -13z"/>
<path d="M1468 4263 c7 -3 16 -2 19 1 4 3 -2 6 -13 5 -11 0 -14 -3 -6 -6z"/>
<path d="M4390 4260 c-8 -5 -23 -11 -32 -14 -10 -3 -18 -15 -18 -26 0 -11 -3
-20 -7 -20 -5 0 -9 -15 -10 -33 -2 -34 1 -31 27 41 l12 32 142 2 141 2 -125 6
-125 6 125 5 125 5 -120 1 c-66 1 -127 -2 -135 -7z"/>
<path d="M4848 4263 c7 -3 16 -2 19 1 4 3 -2 6 -13 5 -11 0 -14 -3 -6 -6z"/>
<path d="M5329 4263 c-1 -5 -1 -11 0 -15 0 -5 -11 -8 -26 -8 -17 0 -23 -4 -17
-9 9 -9 120 12 159 30 17 8 17 9 -5 4 -14 -3 -45 -7 -70 -10 -34 -4 -39 -3
-20 4 24 9 24 9 3 10 -13 1 -24 -2 -24 -6z"/>
<path d="M5648 4263 c12 -2 30 -2 40 0 9 3 -1 5 -23 4 -22 0 -30 -2 -17 -4z"/>
<path d="M5840 4256 c4 -4 16 -4 26 2 16 9 14 10 -8 9 -15 -1 -23 -6 -18 -11z"/>
<path d="M6678 4263 c7 -3 16 -2 19 1 4 3 -2 6 -13 5 -11 0 -14 -3 -6 -6z"/>
<path d="M7138 4263 c6 -2 18 -2 25 0 6 3 1 5 -13 5 -14 0 -19 -2 -12 -5z"/>
<path d="M7192 4263 c-6 -2 -9 -9 -6 -15 5 -7 -6 -9 -32 -5 l-39 6 35 -14 c42
-16 50 -18 49 -7 -4 21 3 31 24 35 18 4 19 4 2 5 -11 0 -26 -2 -33 -5z"/>
<path d="M7530 4258 c0 -4 7 -8 15 -8 8 0 15 -5 15 -10 0 -7 24 -10 63 -8 72
3 79 20 12 28 -25 3 -42 3 -37 -1 4 -4 25 -9 47 -12 36 -3 35 -4 -12 -5 -32
-1 -53 2 -55 10 -5 13 -48 19 -48 6z"/>
<path d="M8200 4246 c0 -17 2 -18 10 -6 7 12 12 12 22 2 6 -6 19 -12 28 -12
11 1 10 3 -5 12 -19 11 -19 11 0 19 14 5 9 7 -17 7 -32 -1 -38 -5 -38 -22z"/>
<path d="M8376 4255 c4 -8 8 -15 10 -15 2 0 4 7 4 15 0 8 -4 15 -10 15 -5 0
-7 -7 -4 -15z"/>
<path d="M8651 4254 c-7 -8 -10 -18 -7 -21 7 -7 36 16 36 28 0 13 -13 10 -29
-7z"/>
<path d="M8755 4260 c-11 -5 -14 -9 -7 -9 18 -1 15 -18 -5 -25 -9 -4 -20 -1
-24 5 -5 8 -15 4 -32 -14 -13 -15 -27 -27 -31 -27 -15 0 -95 -74 -89 -83 3 -5
-4 -6 -17 -2 -20 6 -21 5 -9 -8 12 -14 17 -12 40 13 14 15 44 40 66 55 23 14
44 34 47 42 4 8 13 13 20 10 8 -3 44 5 80 18 35 13 73 25 83 28 10 2 0 3 -22
0 -21 -2 -45 -9 -52 -14 -6 -6 -18 -7 -24 -3 -9 5 -7 10 7 15 12 5 14 8 4 8
-8 0 -24 -4 -35 -9z"/>
<path d="M9235 4260 c11 -5 27 -9 35 -9 9 0 8 4 -5 9 -11 5 -27 9 -35 9 -9 0
-8 -4 5 -9z"/>
<path d="M9352 4258 c5 -15 28 -23 28 -10 0 5 -7 13 -16 16 -10 4 -14 1 -12
-6z"/>
<path d="M10017 4264 c-11 -11 3 -24 24 -24 18 0 19 2 5 15 -16 17 -20 18 -29
9z"/>
<path d="M10118 4263 c7 -3 16 -2 19 1 4 3 -2 6 -13 5 -11 0 -14 -3 -6 -6z"/>
<path d="M10238 4263 c12 -2 30 -2 40 0 9 3 -1 5 -23 4 -22 0 -30 -2 -17 -4z"/>
<path d="M10430 4260 c36 -5 79 -11 95 -14 21 -4 25 -3 14 4 -8 5 -51 11 -95
14 l-79 5 65 -9z"/>
<path d="M5728 4253 c6 -2 18 -2 25 0 6 3 1 5 -13 5 -14 0 -19 -2 -12 -5z"/>
<path d="M5776 4253 c-7 -7 97 -43 127 -43 9 0 17 4 17 9 0 5 -9 7 -19 4 -10
-3 -40 5 -66 16 -55 24 -50 23 -59 14z"/>
<path d="M5885 4249 c-12 -19 5 -23 22 -6 16 16 16 17 1 17 -9 0 -20 -5 -23
-11z"/>
<path d="M6640 4249 c0 -5 5 -7 10 -4 6 3 10 8 10 11 0 2 -4 4 -10 4 -5 0 -10
-5 -10 -11z"/>
<path d="M6705 4250 c-14 -7 -8 -8 20 -3 22 3 42 7 44 9 9 8 -45 2 -64 -6z"/>
<path d="M7068 4253 c6 -2 18 -2 25 0 6 3 1 5 -13 5 -14 0 -19 -2 -12 -5z"/>
<path d="M8340 4251 c0 -6 5 -13 10 -16 6 -4 10 -72 10 -171 0 -109 3 -163 10
-159 6 4 8 10 5 15 -3 5 3 11 12 13 17 4 17 5 1 6 -16 1 -18 15 -18 139 0 139
-5 182 -21 182 -5 0 -9 -4 -9 -9z"/>
<path d="M9290 4256 c0 -7 63 -36 68 -32 2 3 -10 12 -27 20 -31 16 -41 19 -41
12z"/>
<path d="M10080 4249 c0 -5 5 -7 10 -4 6 3 10 8 10 11 0 2 -4 4 -10 4 -5 0
-10 -5 -10 -11z"/>
<path d="M10145 4250 c-14 -7 -8 -8 20 -3 22 3 42 7 44 9 9 8 -45 2 -64 -6z"/>
<path d="M10568 4253 c6 -2 18 -2 25 0 6 3 1 5 -13 5 -14 0 -19 -2 -12 -5z"/>
<path d="M1441 4234 c0 -11 3 -14 6 -6 3 7 2 16 -1 19 -3 4 -6 -2 -5 -13z"/>
<path d="M4673 4243 c9 -2 25 -2 35 0 9 3 1 5 -18 5 -19 0 -27 -2 -17 -5z"/>
<path d="M4801 4246 c2 -2 22 -6 44 -9 28 -5 34 -4 20 3 -19 8 -73 14 -64 6z"/>
<path d="M5224 4235 c-24 -18 -7 -19 26 0 16 9 19 14 9 15 -8 0 -24 -7 -35
-15z"/>
<path d="M6565 4240 c-7 -12 2 -12 30 0 19 8 19 9 -2 9 -12 1 -25 -3 -28 -9z"/>
<path d="M10625 4240 c-4 -7 -18 -9 -34 -6 -22 5 -21 3 9 -13 33 -18 60 -19
31 -2 -11 7 -11 9 0 13 8 3 11 8 8 12 -4 4 -10 2 -14 -4z"/>
<path d="M7520 4229 c0 -5 5 -7 10 -4 6 3 10 8 10 11 0 2 -4 4 -10 4 -5 0 -10
-5 -10 -11z"/>
<path d="M10090 4230 c-8 -5 -10 -10 -5 -10 6 0 17 5 25 10 8 5 11 10 5 10 -5
0 -17 -5 -25 -10z"/>
<path d="M2590 4209 c7 -11 14 -18 17 -15 8 8 -5 36 -17 36 -7 0 -7 -6 0 -21z"/>
<path d="M6602 4223 c-12 -2 -27 -13 -32 -24 -10 -18 -8 -18 32 3 61 30 61 33
0 21z"/>
<path d="M9370 4220 c0 -5 4 -10 9 -10 5 0 18 -3 28 -6 16 -5 16 -4 -1 10 -23
18 -36 20 -36 6z"/>
<path d="M2631 4204 c0 -11 3 -14 6 -6 3 7 2 16 -1 19 -3 4 -6 -2 -5 -13z"/>
<path d="M4833 4183 c-14 -34 -10 -73 8 -73 5 0 9 8 10 18 0 15 2 14 9 -3 7
-14 8 -10 4 16 -3 22 -1 39 5 43 17 11 13 33 -5 33 -9 0 -23 -16 -31 -34z m13
-40 c-10 -26 -18 -8 -9 23 5 21 8 24 11 11 2 -10 1 -25 -2 -34z"/>
<path d="M5200 4184 c-61 -33 -79 -48 -80 -67 0 -4 15 6 33 22 17 17 37 31 42
31 6 0 28 11 50 25 59 36 30 29 -45 -11z"/>
<path d="M7240 4201 c19 -10 37 -17 39 -15 8 8 -34 33 -54 34 -14 0 -10 -5 15
-19z"/>
<path d="M10030 4210 c0 -13 11 -13 30 0 12 8 11 10 -7 10 -13 0 -23 -4 -23
-10z"/>
<path d="M7519 4085 c-4 -71 -5 -132 -3 -134 12 -13 14 19 12 135 l-3 129 -6
-130z"/>
<path d="M5915 4190 c3 -6 11 -10 17 -10 5 0 23 -9 39 -21 16 -11 29 -17 29
-12 0 10 -31 30 -66 43 -17 7 -23 7 -19 0z"/>
<path d="M9988 4183 c-14 -14 -20 -14 -33 -3 -8 7 -19 10 -22 6 -4 -4 -1 -11
6 -16 12 -7 11 -11 -2 -25 -10 -9 -17 -20 -17 -25 0 -5 -9 -12 -21 -15 -19 -6
-76 -111 -66 -122 3 -2 11 13 20 34 16 39 88 120 142 160 17 12 25 22 20 22
-6 1 -18 -6 -27 -16z"/>
<path d="M1378 4183 c7 -3 16 -2 19 1 4 3 -2 6 -13 5 -11 0 -14 -3 -6 -6z"/>
<path d="M2680 4182 c0 -4 9 -13 20 -20 11 -7 20 -9 20 -4 0 4 -9 13 -20 20
-11 7 -20 9 -20 4z"/>
<path d="M5120 4180 c0 -5 5 -10 10 -10 6 0 10 5 10 10 0 6 -4 10 -10 10 -5 0
-10 -4 -10 -10z"/>
<path d="M5998 4183 c7 -3 16 -2 19 1 4 3 -2 6 -13 5 -11 0 -14 -3 -6 -6z"/>
<path d="M6050 4177 c14 -8 27 -12 30 -10 7 6 -23 23 -40 23 -8 0 -4 -6 10
-13z"/>
<path d="M6485 4180 c-3 -5 -2 -10 4 -10 5 0 13 5 16 10 3 6 2 10 -4 10 -5 0
-13 -4 -16 -10z"/>
<path d="M6505 4158 c-19 -19 -22 -26 -10 -19 28 15 55 37 55 45 0 12 -15 3
-45 -26z"/>
<path d="M7292 4179 c2 -5 19 -20 38 -31 l35 -22 -30 32 c-30 31 -50 41 -43
21z"/>
<path d="M7342 4176 c7 -8 15 -12 17 -11 5 6 -10 25 -20 25 -5 0 -4 -6 3 -14z"/>
<path d="M8580 4175 c-7 -8 -8 -15 -2 -15 5 0 15 7 22 15 7 8 8 15 2 15 -5 0
-15 -7 -22 -15z"/>
<path d="M9444 4176 c46 -38 73 -64 100 -97 23 -29 26 -30 21 -10 -5 17 -4 21
5 16 6 -4 9 -17 6 -29 -2 -11 1 -32 9 -46 12 -23 13 -21 10 24 -2 27 -11 56
-19 65 -11 10 -16 11 -16 3 0 -9 -4 -9 -20 0 -11 7 -20 17 -20 23 0 10 -13 19
-70 53 -23 13 -24 13 -6 -2z"/>
<path d="M9486 4176 c10 -8 21 -12 24 -10 5 6 -21 24 -34 24 -6 0 -1 -6 10
-14z"/>
<path d="M10705 4163 c55 -40 76 -50 43 -20 -15 14 -25 27 -22 29 2 3 -2 5 -8
5 -7 0 -22 4 -33 8 -11 4 -2 -5 20 -22z"/>
<path d="M2654 4147 c10 -15 23 -27 28 -27 16 0 4 22 -22 39 l-24 16 18 -28z"/>
<path d="M6015 4160 c-4 -6 3 -10 13 -10 11 0 22 -7 26 -15 3 -9 0 -15 -8 -15
-8 0 -16 6 -19 13 -2 6 -7 10 -10 7 -3 -3 10 -22 30 -43 23 -25 33 -32 29 -19
-6 17 -3 19 16 15 13 -3 32 -13 43 -22 20 -16 20 -16 1 6 -10 12 -28 23 -39
25 -13 2 -23 13 -27 27 -6 25 -45 47 -55 31z"/>
<path d="M10765 4150 c10 -11 20 -18 23 -15 7 6 -18 35 -31 35 -5 0 -2 -9 8
-20z"/>
<path d="M2710 4125 c0 -8 -4 -15 -10 -15 -5 0 6 -16 26 -36 19 -20 38 -33 42
-29 4 4 -6 18 -23 31 -19 15 -29 31 -27 44 2 11 1 20 -2 20 -3 0 -6 -7 -6 -15z"/>
<path d="M10787 4113 c-4 -3 11 -27 32 -52 21 -25 43 -55 49 -66 10 -18 11
-18 9 7 -1 15 -14 35 -29 48 -16 12 -28 26 -28 32 0 6 9 3 20 -7 11 -10 20
-13 20 -8 0 18 -27 34 -45 26 -12 -4 -16 -3 -11 5 7 12 -7 25 -17 15z"/>
<path d="M2760 4102 c0 -4 9 -13 20 -20 23 -14 26 -7 6 14 -16 15 -26 18 -26
6z"/>
<path d="M4293 4097 c3 -7 -3 -30 -13 -51 -11 -24 -19 -33 -22 -24 -3 8 0 22
8 33 16 22 18 35 4 35 -5 0 -10 -8 -11 -17 0 -16 -1 -16 -8 1 -4 10 -7 -21 -7
-70 l1 -89 32 85 c35 92 39 110 22 110 -6 0 -9 -6 -6 -13z"/>
<path d="M5084 4096 c-5 -13 -9 -14 -21 -4 -13 10 -15 9 -12 -6 2 -11 9 -21
14 -23 12 -4 39 36 31 44 -3 3 -8 -2 -12 -11z"/>
<path d="M6428 4087 c-23 -22 -46 -73 -27 -61 5 3 9 12 9 20 0 8 4 14 9 14 5
0 16 11 25 25 20 31 16 32 -16 2z"/>
<path d="M7397 4076 c31 -36 43 -37 43 -3 0 18 -2 19 -10 7 -8 -13 -12 -12
-25 8 -9 12 -21 22 -27 22 -5 0 3 -15 19 -34z"/>
<path d="M8483 4095 c-3 -9 -3 -19 1 -22 3 -4 6 1 6 10 0 10 5 17 10 17 6 0
10 -6 10 -14 0 -7 7 -19 15 -26 23 -19 20 13 -3 33 -23 21 -31 21 -39 2z"/>
<path d="M9841 4074 c0 -11 3 -14 6 -6 3 7 2 16 -1 19 -3 4 -6 -2 -5 -13z"/>
<path d="M10872 4070 c0 -14 2 -19 5 -12 2 6 2 18 0 25 -3 6 -5 1 -5 -13z"/>
<path d="M4791 4064 c0 -11 3 -14 6 -6 3 7 2 16 -1 19 -3 4 -6 -2 -5 -13z"/>
<path d="M6095 4050 c3 -5 11 -10 16 -10 6 0 7 5 4 10 -3 6 -11 10 -16 10 -6
0 -7 -4 -4 -10z"/>
<path d="M2784 4036 c-9 -9 -3 -20 23 -45 19 -18 37 -30 41 -26 4 4 -6 18 -23
31 -16 13 -29 31 -27 39 3 18 1 18 -14 1z"/>
<path d="M6130 4040 c0 -5 5 -10 10 -10 6 0 10 5 10 10 0 6 -4 10 -10 10 -5 0
-10 -4 -10 -10z"/>
<path d="M4778 4018 c-3 -13 -15 -47 -26 -75 -12 -29 -19 -53 -17 -53 3 0 10
11 15 25 5 14 16 25 24 25 10 0 14 14 14 50 0 55 -3 62 -10 28z"/>
<path d="M5040 4029 c0 -5 5 -7 10 -4 6 3 10 8 10 11 0 2 -4 4 -10 4 -5 0 -10
-5 -10 -11z"/>
<path d="M8503 4028 c0 -7 -4 -22 -8 -33 l-8 -20 16 20 c18 22 22 45 9 45 -5
0 -9 -6 -9 -12z"/>
<path d="M1234 4014 c10 -25 -4 -37 -20 -17 -13 17 -13 17 -14 -2 0 -23 33
-31 48 -12 14 18 11 47 -6 47 -9 0 -12 -6 -8 -16z"/>
<path d="M2840 4022 c0 -4 9 -13 20 -20 11 -7 20 -9 20 -4 0 4 -9 13 -20 20
-11 7 -20 9 -20 4z"/>
<path d="M4961 4014 c0 -11 3 -14 6 -6 3 7 2 16 -1 19 -3 4 -6 -2 -5 -13z"/>
<path d="M4991 4014 c0 -11 3 -14 6 -6 3 7 2 16 -1 19 -3 4 -6 -2 -5 -13z"/>
<path d="M6112 4010 c13 -20 28 -27 28 -12 0 10 -22 32 -32 32 -5 0 -3 -9 4
-20z"/>
<path d="M6333 4006 c7 -14 13 -23 15 -21 7 6 -9 45 -18 45 -4 0 -3 -11 3 -24z"/>
<path d="M6365 4012 c4 -13 1 -29 -5 -37 -8 -10 -9 -15 -2 -15 17 0 24 38 12
57 -9 16 -10 15 -5 -5z"/>
<path d="M7495 4020 c3 -5 8 -10 11 -10 2 0 4 5 4 10 0 6 -5 10 -11 10 -5 0
-7 -4 -4 -10z"/>
<path d="M9766 4014 c-9 -23 -7 -31 3 -15 7 11 13 12 23 3 11 -9 17 -9 26 0
18 18 14 32 -5 17 -13 -11 -17 -11 -20 -1 -6 17 -20 15 -27 -4z"/>
<path d="M5015 4005 c-3 -11 -11 -30 -16 -43 -5 -13 -9 -31 -8 -40 0 -9 9 5
20 32 11 27 18 54 16 60 -3 6 -8 2 -12 -9z"/>
<path d="M6145 3982 c-3 -16 -2 -38 3 -51 6 -18 8 -11 8 28 0 28 -1 51 -2 51
-1 0 -5 -13 -9 -28z"/>
<path d="M7481 3980 c-1 -27 14 -58 24 -49 3 3 -1 21 -9 40 -14 31 -15 32 -15
9z"/>
<path d="M6321 3974 c0 -11 3 -14 6 -6 3 7 2 16 -1 19 -3 4 -6 -2 -5 -13z"/>
<path d="M7460 3974 c0 -10 5 -26 10 -34 8 -11 9 -7 4 15 -8 37 -14 45 -14 19z"/>
<path d="M2871 3968 c-1 -9 -4 -18 -8 -21 -5 -2 -2 -2 6 0 9 2 11 -2 7 -14 -5
-13 -4 -15 4 -7 7 7 7 18 1 35 -6 16 -10 18 -10 7z"/>
<path d="M9771 3953 c0 -25 1 -26 9 -8 12 27 12 35 0 35 -5 0 -10 -12 -9 -27z"/>
<path d="M9801 3962 c-7 -12 -8 -30 -3 -43 8 -20 9 -18 15 16 7 45 3 55 -12
27z"/>
<path d="M4976 3955 c-9 -26 -7 -32 5 -12 6 10 9 21 6 23 -2 3 -7 -2 -11 -11z"/>
<path d="M8481 3954 c0 -11 3 -14 6 -6 3 7 2 16 -1 19 -3 4 -6 -2 -5 -13z"/>
<path d="M1125 3878 c-47 -45 -83 -83 -81 -86 3 -2 44 35 93 82 48 47 85 86
80 86 -4 0 -45 -37 -92 -82z"/>
<path d="M1135 3930 c-26 -29 -15 -32 13 -4 12 13 19 24 14 24 -5 0 -17 -9
-27 -20z"/>
<path d="M2930 3930 c14 -10 26 -17 29 -15 6 7 -27 35 -41 35 -7 0 -2 -9 12
-20z"/>
<path d="M6325 3940 c3 -5 8 -10 11 -10 2 0 4 5 4 10 0 6 -5 10 -11 10 -5 0
-7 -4 -4 -10z"/>
<path d="M9616 3925 c14 -58 24 -83 18 -40 -3 22 -10 47 -15 55 -6 10 -7 5 -3
-15z"/>
<path d="M9646 3899 c14 -52 24 -74 24 -50 0 24 -23 101 -30 101 -4 0 -1 -23
6 -51z"/>
<path d="M10906 3915 c7 -19 14 -45 15 -57 0 -13 3 -17 6 -10 6 17 -17 102
-28 102 -4 0 -1 -16 7 -35z"/>
<path d="M10925 3940 c3 -5 8 -10 11 -10 2 0 4 5 4 10 0 6 -5 10 -11 10 -5 0
-7 -4 -4 -10z"/>
<path d="M10951 3924 c0 -11 3 -14 6 -6 3 7 2 16 -1 19 -3 4 -6 -2 -5 -13z"/>
<path d="M8984 3903 c-13 -14 -22 -28 -19 -31 2 -3 14 7 26 22 12 15 27 25 34
23 6 -3 18 -1 26 4 10 6 6 9 -14 9 -18 0 -37 -10 -53 -27z"/>
<path d="M2900 3900 c11 -20 30 -28 30 -12 0 11 -22 32 -32 32 -5 0 -4 -9 2
-20z"/>
<path d="M4760 3906 c0 -8 5 -18 10 -21 6 -3 10 3 10 14 0 12 -4 21 -10 21 -5
0 -10 -6 -10 -14z"/>
<path d="M4961 3904 c0 -11 3 -14 6 -6 3 7 2 16 -1 19 -3 4 -6 -2 -5 -13z"/>
<path d="M6925 3909 c38 -7 38 -8 -11 -5 -82 4 -80 21 -74 -529 l6 -470 2 478
c1 263 4 482 7 486 3 5 13 8 23 6 9 -1 11 0 5 2 -28 10 -10 18 36 17 55 -2 74
-10 65 -27 -4 -7 -1 -6 7 1 21 20 -23 52 -70 51 l-36 -2 40 -8z"/>
<path d="M7515 3910 c-3 -5 -1 -10 4 -10 6 0 11 5 11 10 0 6 -2 10 -4 10 -3 0
-8 -4 -11 -10z"/>
<path d="M9114 3908 c3 -12 0 -18 -9 -18 -8 0 -15 5 -15 10 0 6 -7 10 -16 10
-14 0 -14 -2 0 -15 8 -8 22 -15 30 -15 12 0 16 -12 18 -47 0 -27 0 -57 -1 -67
-1 -11 2 -16 6 -12 11 10 4 137 -9 156 -8 13 -9 12 -4 -2z"/>
<path d="M5540 3901 c0 -5 9 -7 20 -4 11 3 20 7 20 9 0 2 -9 4 -20 4 -11 0
-20 -4 -20 -9z"/>
<path d="M5621 3887 c15 -12 29 -31 32 -42 5 -19 5 -19 6 1 1 20 -37 64 -55
64 -5 -1 3 -11 17 -23z"/>
<path d="M7486 3885 c2 -11 4 -29 4 -39 0 -25 5 -18 14 17 4 18 3 26 -3 23 -5
-4 -11 -1 -14 6 -2 7 -3 4 -1 -7z"/>
<path d="M10340 3900 c-12 -8 -11 -10 7 -10 12 0 25 5 28 10 8 13 -15 13 -35
0z"/>
<path d="M2950 3886 c0 -8 -4 -16 -9 -18 -5 -1 -3 -8 3 -14 10 -9 13 -6 14 17
0 16 -1 29 -4 29 -2 0 -4 -6 -4 -14z"/>
<path d="M4982 3870 c0 -19 2 -27 5 -17 2 9 2 25 0 35 -3 9 -5 1 -5 -18z"/>
<path d="M9006 3884 c-4 -10 -1 -14 6 -12 15 5 23 28 10 28 -5 0 -13 -7 -16
-16z"/>
<path d="M10390 3890 c-9 -6 -10 -10 -3 -10 6 0 13 -6 16 -12 2 -7 3 -5 2 5
-8 49 47 -9 68 -73 4 -11 6 -11 6 3 1 26 -26 75 -48 87 -24 12 -22 12 -41 0z"/>
<path d="M5509 3876 c-5 -6 -9 -17 -9 -25 1 -14 2 -14 13 0 7 9 29 18 50 21
36 4 37 3 37 -27 0 -33 15 -63 26 -52 4 3 2 12 -4 19 -5 7 -12 26 -14 42 -3
27 -6 29 -46 30 -24 1 -47 -3 -53 -8z"/>
<path d="M6331 3874 c0 -11 3 -14 6 -6 3 7 2 16 -1 19 -3 4 -6 -2 -5 -13z"/>
<path d="M7525 3880 c3 -5 8 -10 11 -10 2 0 4 5 4 10 0 6 -5 10 -11 10 -5 0
-7 -4 -4 -10z"/>
<path d="M8350 3879 c0 -5 5 -7 10 -4 6 3 10 8 10 11 0 2 -4 4 -10 4 -5 0 -10
-5 -10 -11z"/>
<path d="M8385 3880 c3 -5 8 -10 11 -10 2 0 4 5 4 10 0 6 -5 10 -11 10 -5 0
-7 -4 -4 -10z"/>
<path d="M9766 3875 c-3 -9 -5 -33 -5 -53 2 -33 2 -32 9 13 8 53 6 66 -4 40z"/>
<path d="M9787 3877 c-4 -10 -7 -35 -6 -55 l1 -37 9 40 c11 45 8 82 -4 52z"/>
<path d="M10296 3868 c-7 -13 -16 -36 -20 -53 -5 -29 -5 -29 10 5 9 19 20 43
25 53 13 25 2 21 -15 -5z"/>
<path d="M7685 3392 c0 -268 3 -464 7 -437 9 70 10 913 1 918 -5 3 -8 -214 -8
-481z"/>
<path d="M8177 3873 c-4 -3 -7 -199 -7 -434 0 -507 7 -556 81 -593 40 -20 45
-20 29 -1 -7 8 -18 15 -25 15 -23 0 -43 43 -33 70 5 13 7 33 5 45 -2 12 -7 3
-12 -24 l-8 -45 -13 50 c-10 36 -13 160 -14 481 l0 432 33 4 32 4 -31 1 c-17
1 -34 -1 -37 -5z"/>
<path d="M1044 3843 c-2 -21 -1 -21 14 -5 9 9 21 20 26 24 5 3 -2 5 -15 5 -17
-1 -24 -8 -25 -24z"/>
<path d="M3007 3852 c12 -9 23 -28 26 -42 4 -22 4 -22 6 6 1 33 -14 54 -38 54
-12 0 -11 -5 6 -18z"/>
<path d="M4204 3835 c-17 -40 -18 -53 -4 -39 11 11 31 74 24 74 -3 0 -12 -16
-20 -35z"/>
<path d="M5620 3858 c0 -7 5 -20 10 -28 8 -12 10 -11 10 7 0 12 -4 25 -10 28
-5 3 -10 0 -10 -7z"/>
<path d="M6166 3855 c4 -8 8 -15 10 -15 2 0 4 7 4 15 0 8 -4 15 -10 15 -5 0
-7 -7 -4 -15z"/>
<path d="M6200 3843 c0 -29 12 -24 17 7 2 11 -2 20 -7 20 -6 0 -10 -12 -10
-27z"/>
<path d="M6231 3854 c0 -11 3 -14 6 -6 3 7 2 16 -1 19 -3 4 -6 -2 -5 -13z"/>
<path d="M8409 3838 c-2 -18 -1 -73 2 -123 l6 -90 1 123 c2 118 -2 156 -9 90z"/>
<path d="M8433 3790 c0 -69 1 -77 7 -40 l7 45 1 -52 c1 -30 -2 -53 -8 -53 -5
0 -10 -4 -10 -8 0 -5 7 -9 16 -9 13 0 15 10 11 61 -3 34 -9 79 -15 101 -9 36
-10 31 -9 -45z"/>
<path d="M10940 3860 c0 -5 5 -10 10 -10 6 0 10 5 10 10 0 6 -4 10 -10 10 -5
0 -10 -4 -10 -10z"/>
<path d="M10420 3851 c0 -19 28 -62 34 -52 4 5 2 12 -4 16 -5 3 -10 15 -10 26
0 10 -4 19 -10 19 -5 0 -10 -4 -10 -9z"/>
<path d="M4708 3830 c-3 -14 -19 -63 -36 -109 -17 -45 -28 -80 -25 -77 3 3 12
1 20 -5 10 -9 12 -6 7 20 -4 18 -2 42 3 54 31 67 45 107 41 123 -3 16 -5 14
-10 -6z"/>
<path d="M6867 3836 c-4 -10 -7 -25 -6 -34 0 -11 4 -9 10 7 5 13 8 29 6 35 -2
5 -6 2 -10 -8z"/>
<path d="M7006 3837 c3 -10 9 -15 12 -12 3 3 0 11 -7 18 -10 9 -11 8 -5 -6z"/>
<path d="M2982 3820 c13 -20 28 -27 28 -12 0 10 -22 32 -32 32 -5 0 -3 -9 4
-20z"/>
<path d="M4172 3820 c0 -14 2 -19 5 -12 2 6 2 18 0 25 -3 6 -5 1 -5 -13z"/>
<path d="M6322 3820 c0 -14 2 -19 5 -12 2 6 2 18 0 25 -3 6 -5 1 -5 -13z"/>
<path d="M10401 3830 c0 -8 4 -22 9 -30 12 -18 12 -2 0 25 -6 13 -9 15 -9 5z"/>
<path d="M5494 3610 c0 -124 2 -174 3 -112 2 61 2 163 0 225 -1 61 -3 11 -3
-113z"/>
<path d="M6967 3801 c-4 -18 -6 -66 -5 -105 l2 -71 6 85 6 85 4 -85 3 -85 7
100 c4 55 6 102 4 104 -2 2 -4 -7 -5 -20 l-1 -24 -7 25 c-7 24 -7 24 -14 -9z"/>
<path d="M9657 3800 c-11 -52 -8 -1330 3 -1330 6 0 10 -7 10 -17 0 -9 1 -14 3
-12 1 2 0 317 -3 699 -3 382 -8 679 -13 660z"/>
<path d="M6181 3804 c0 -11 3 -14 6 -6 3 7 2 16 -1 19 -3 4 -6 -2 -5 -13z"/>
<path d="M8951 3804 c0 -11 3 -14 6 -6 3 7 2 16 -1 19 -3 4 -6 -2 -5 -13z"/>
<path d="M10302 3800 c0 -14 2 -19 5 -12 2 6 2 18 0 25 -3 6 -5 1 -5 -13z"/>
<path d="M10933 3760 c0 -36 2 -50 4 -32 2 17 2 47 0 65 -2 17 -4 3 -4 -33z"/>
<path d="M4975 3440 c0 -206 1 -291 2 -187 2 103 2 271 0 375 -1 103 -2 18 -2
-188z"/>
<path d="M3012 3124 c-2 -591 0 -671 13 -671 8 0 15 4 15 9 0 4 -4 8 -10 8 -6
0 -11 232 -13 663 l-2 662 -3 -671z"/>
<path d="M4166 3775 c-3 -9 -5 -33 -5 -53 1 -34 2 -33 10 13 8 51 6 68 -5 40z"/>
<path d="M6202 3368 c-1 -258 2 -428 7 -428 5 0 8 -26 6 -57 l-4 -58 9 59 c6
38 6 64 0 71 -6 7 -11 176 -13 426 l-2 414 -3 -427z"/>
<path d="M6235 3390 c0 -223 1 -314 2 -202 2 111 2 293 0 405 -1 111 -2 20 -2
-203z"/>
<path d="M10280 3769 c0 -8 7 -23 15 -33 11 -14 15 -16 15 -5 0 8 -7 23 -15
33 -11 14 -15 16 -15 5z"/>
<path d="M4693 3715 c-10 -11 -9 -22 2 -52 l14 -38 -5 45 c-3 33 -2 40 5 25 7
-14 10 -15 10 -5 1 27 -13 39 -26 25z"/>
<path d="M9761 3694 c0 -11 3 -14 6 -6 3 7 2 16 -1 19 -3 4 -6 -2 -5 -13z"/>
<path d="M10328 3703 c7 -3 16 -2 19 1 4 3 -2 6 -13 5 -11 0 -14 -3 -6 -6z"/>
<path d="M9054 3657 c-31 -32 -82 -66 -119 -78 -20 -7 -20 -7 0 -8 11 -1 37
10 57 24 20 14 41 25 45 26 11 1 67 69 56 69 -4 -1 -22 -15 -39 -33z"/>
<path d="M10350 3681 c0 -12 42 -42 49 -36 5 5 -34 45 -44 45 -3 0 -5 -4 -5
-9z"/>
<path d="M10938 3683 c7 -3 16 -2 19 1 4 3 -2 6 -13 5 -11 0 -14 -3 -6 -6z"/>
<path d="M10940 3660 c-13 -8 -12 -10 3 -10 9 0 17 5 17 10 0 12 -1 12 -20 0z"/>
<path d="M9790 3644 c0 -16 -2 -17 -10 -4 -5 8 -10 11 -10 5 0 -5 4 -16 9 -24
7 -11 10 -9 16 8 4 13 4 25 1 28 -3 4 -6 -2 -6 -13z"/>
<path d="M8455 3640 c-3 -5 -1 -10 4 -10 6 0 11 5 11 10 0 6 -2 10 -4 10 -3 0
-8 -4 -11 -10z"/>
<path d="M10477 3634 c-9 -10 4 -34 19 -34 8 0 14 4 14 9 0 5 6 11 13 14 6 2
-1 2 -17 -1 -19 -3 -26 -1 -22 7 8 12 3 15 -7 5z"/>
<path d="M7498 3608 c-3 -23 -4 -23 -233 -28 -197 -4 -232 -3 -242 10 -18 22
-16 -2 2 -26 8 -11 15 -14 15 -6 0 9 50 12 214 12 162 0 216 -3 219 -12 4 -10
6 -10 6 0 1 6 8 12 16 12 10 0 15 10 15 30 0 35 -7 40 -12 8z"/>
<path d="M8890 3620 c-24 -15 -7 -19 20 -5 15 8 19 14 10 14 -8 1 -22 -3 -30
-9z"/>
<path d="M8956 3615 c-11 -8 -16 -15 -10 -15 5 0 18 7 28 15 11 8 16 15 10 15
-5 0 -18 -7 -28 -15z"/>
<path d="M6969 3582 c5 -34 6 -35 9 -8 2 16 0 32 -5 37 -5 5 -7 -7 -4 -29z"/>
<path d="M9761 3604 c0 -11 3 -14 6 -6 3 7 2 16 -1 19 -3 4 -6 -2 -5 -13z"/>
<path d="M10446 3602 c11 -9 33 -26 48 -37 16 -11 46 -35 68 -52 22 -18 42
-33 45 -33 10 0 -43 59 -54 59 -6 1 -34 19 -62 41 -48 38 -88 58 -45 22z"/>
<path d="M6991 3594 c0 -11 3 -14 6 -6 3 7 2 16 -1 19 -3 4 -6 -2 -5 -13z"/>
<path d="M9806 3597 c3 -10 9 -15 12 -12 3 3 0 11 -7 18 -10 9 -11 8 -5 -6z"/>
<path d="M4627 3568 c3 -17 2 -19 -5 -10 -7 10 -11 5 -17 -20 -4 -18 -7 -40
-6 -48 4 -33 26 -100 33 -100 11 0 10 5 -7 47 -17 40 -20 93 -6 93 5 0 11 -8
13 -17 2 -10 5 3 5 30 1 26 -2 47 -7 47 -4 0 -6 -10 -3 -22z"/>
<path d="M9790 3585 c0 -5 5 -17 10 -25 5 -8 10 -10 10 -5 0 6 -5 17 -10 25
-5 8 -10 11 -10 5z"/>
<path d="M10530 3581 c0 -6 5 -13 10 -16 6 -3 10 1 10 9 0 9 -4 16 -10 16 -5
0 -10 -4 -10 -9z"/>
<path d="M9771 3564 c0 -11 3 -14 6 -6 3 7 2 16 -1 19 -3 4 -6 -2 -5 -13z"/>
<path d="M6995 3560 c-3 -5 -1 -10 4 -10 6 0 11 5 11 10 0 6 -2 10 -4 10 -3 0
-8 -4 -11 -10z"/>
<path d="M9820 3566 c0 -4 7 -14 15 -22 8 -9 15 -11 15 -6 0 5 -7 15 -15 22
-8 7 -15 9 -15 6z"/>
<path d="M8785 3540 c-3 -5 -1 -10 4 -10 6 0 11 -5 11 -11 0 -5 -4 -8 -9 -4
-5 3 -12 1 -16 -5 -7 -12 18 -14 29 -2 4 4 26 15 49 25 36 15 37 17 12 13 -16
-3 -39 -8 -49 -12 -14 -5 -17 -4 -12 4 4 7 3 12 -3 12 -5 0 -13 -4 -16 -10z"/>
<path d="M10610 3546 c0 -2 7 -7 16 -10 8 -3 12 -2 9 4 -6 10 -25 14 -25 6z"/>
<path d="M10590 3521 c0 -5 7 -12 16 -15 24 -9 28 -7 14 9 -14 17 -30 20 -30
6z"/>
<path d="M8723 3510 c2 -8 12 -16 23 -17 13 -2 15 -1 4 4 -8 3 -19 11 -23 17
-6 7 -7 6 -4 -4z"/>
<path d="M9841 3494 c1 -21 16 -47 21 -38 4 5 0 18 -8 29 -8 10 -14 15 -13 9z"/>
<path d="M10627 3474 c-3 -3 20 -27 51 -52 31 -25 61 -52 65 -59 5 -7 13 -11
18 -7 5 3 8 0 7 -7 -2 -6 3 -14 11 -16 8 -4 12 0 9 8 -3 8 -1 22 4 32 8 16 7
18 -8 9 -30 -17 -71 9 -65 41 1 5 -4 5 -10 2 -6 -4 -25 7 -43 24 -18 17 -35
29 -39 25z"/>
<path d="M8606 3461 c-4 -5 1 -8 9 -7 21 3 31 16 12 16 -9 0 -18 -4 -21 -9z"/>
<path d="M9886 3456 c3 -8 12 -17 21 -20 13 -5 13 -9 2 -22 -11 -13 -10 -15 5
-12 14 2 19 -4 21 -29 1 -18 -1 -33 -6 -33 -5 0 -9 -5 -9 -11 0 -8 5 -7 16 2
10 8 13 21 9 36 -6 25 12 33 21 9 7 -17 82 -71 89 -64 3 3 -5 12 -18 21 -13 8
-51 42 -85 76 -64 63 -75 71 -66 47z"/>
<path d="M10685 3454 c17 -17 22 -17 28 -1 3 7 -5 13 -19 13 -20 2 -21 0 -9
-12z"/>
<path d="M8654 3444 c-18 -14 -18 -14 6 -3 31 14 36 19 24 19 -6 0 -19 -7 -30
-16z"/>
<path d="M8561 3434 c0 -11 3 -14 6 -6 3 7 2 16 -1 19 -3 4 -6 -2 -5 -13z"/>
<path d="M8586 3409 c-15 -17 -26 -32 -24 -34 5 -5 68 49 68 58 0 15 -18 6
-44 -24z"/>
<path d="M9870 3430 c0 -5 5 -10 11 -10 5 0 7 5 4 10 -3 6 -8 10 -11 10 -2 0
-4 -4 -4 -10z"/>
<path d="M9840 3416 c0 -2 8 -10 18 -17 15 -13 16 -12 3 4 -13 16 -21 21 -21
13z"/>
<path d="M8490 3380 c0 -5 5 -10 10 -10 6 0 10 5 10 10 0 6 -4 10 -10 10 -5 0
-10 -4 -10 -10z"/>
<path d="M8520 3351 c-16 -30 -12 -36 10 -16 21 19 26 35 10 35 -5 0 -14 -9
-20 -19z"/>
<path d="M4162 3320 c0 -14 2 -19 5 -12 2 6 2 18 0 25 -3 6 -5 1 -5 -13z"/>
<path d="M9970 3335 c0 -2 10 -10 23 -16 20 -11 21 -11 8 4 -13 16 -31 23 -31
12z"/>
<path d="M9077 3303 c-39 -28 -42 -39 -8 -28 12 3 21 13 21 21 0 17 16 19 26
3 3 -6 0 -17 -7 -24 -19 -17 -79 -36 -79 -24 0 14 -17 11 -23 -5 -4 -10 3 -12
30 -9 20 2 44 8 54 13 10 6 20 10 23 10 2 0 5 -77 6 -172 0 -95 3 -174 5 -177
3 -2 5 91 5 207 0 117 -3 212 -8 212 -4 0 -24 -12 -45 -27z"/>
<path d="M10800 3308 c8 -7 30 -35 48 -63 21 -31 31 -40 26 -25 -9 33 -51 87
-72 94 -15 5 -15 4 -2 -6z"/>
<path d="M4661 3283 c11 -34 19 -42 19 -20 0 7 -7 22 -15 33 -13 17 -14 16 -4
-13z"/>
<path d="M4702 3290 c0 -14 2 -19 5 -12 2 6 2 18 0 25 -3 6 -5 1 -5 -13z"/>
<path d="M5493 3270 c0 -25 2 -35 4 -22 2 12 2 32 0 45 -2 12 -4 2 -4 -23z"/>
<path d="M8500 3299 c0 -5 5 -7 10 -4 6 3 10 8 10 11 0 2 -4 4 -10 4 -5 0 -10
-5 -10 -11z"/>
<path d="M10858 3292 c20 -22 25 -21 16 2 -3 9 -12 16 -20 16 -11 0 -10 -4 4
-18z"/>
<path d="M4171 3279 c-1 -9 6 -32 14 -50 18 -43 18 -16 0 31 -7 19 -14 28 -14
19z"/>
<path d="M10098 3270 c12 -11 26 -20 31 -20 5 0 24 -12 41 -26 17 -15 33 -24
36 -21 6 5 -109 87 -122 87 -4 0 2 -9 14 -20z"/>
<path d="M8482 3240 c0 -14 2 -19 5 -12 2 6 2 18 0 25 -3 6 -5 1 -5 -13z"/>
<path d="M4688 3238 c-4 -9 2 -42 12 -74 11 -33 17 -43 13 -24 -8 45 -8 60 1
90 5 17 4 21 -2 11 -8 -11 -10 -11 -14 0 -3 10 -6 9 -10 -3z"/>
<path d="M10085 3240 c3 -5 14 -10 23 -10 15 0 15 2 2 10 -20 13 -33 13 -25 0z"/>
<path d="M6995 3221 c-5 -10 -4 -16 3 -19 7 -2 13 -16 13 -30 1 -21 2 -23 6
-7 3 11 10 23 17 27 7 5 5 8 -6 8 -9 0 -18 8 -20 18 -3 14 -5 15 -13 3z"/>
<path d="M7440 3218 c0 -5 18 -8 40 -8 22 0 40 3 40 8 0 4 -18 7 -40 7 -22 0
-40 -3 -40 -7z"/>
<path d="M10900 3210 c0 -5 5 -10 10 -10 6 0 10 -11 10 -25 0 -14 5 -25 10
-25 6 0 10 -10 10 -22 0 -27 5 -21 14 17 4 17 3 25 -2 18 -5 -9 -12 -2 -21 22
-11 32 -31 48 -31 25z"/>
<path d="M4171 3200 c0 -8 6 -31 13 -50 l13 -35 7 29 c4 16 5 31 1 34 -3 3 -5
-1 -6 -9 0 -8 -7 0 -14 16 -8 17 -14 23 -14 15z"/>
<path d="M8977 3196 c-4 -10 -7 -25 -6 -34 0 -11 4 -9 10 7 5 13 8 29 6 35 -2
5 -6 2 -10 -8z"/>
<path d="M9008 3204 c-5 -4 -8 -19 -8 -33 1 -23 2 -24 11 -8 11 19 9 53 -3 41z"/>
<path d="M6961 3184 c0 -11 3 -14 6 -6 3 7 2 16 -1 19 -3 4 -6 -2 -5 -13z"/>
<path d="M7448 3193 c6 -2 18 -2 25 0 6 3 1 5 -13 5 -14 0 -19 -2 -12 -5z"/>
<path d="M7490 3190 c0 -5 5 -10 10 -10 6 0 10 5 10 10 0 6 -4 10 -10 10 -5 0
-10 -4 -10 -10z"/>
<path d="M9032 3170 c0 -14 2 -19 5 -12 2 6 2 18 0 25 -3 6 -5 1 -5 -13z"/>
<path d="M10229 3181 c7 -5 11 -14 7 -20 -5 -7 -1 -9 9 -5 12 5 14 2 8 -12 -6
-16 -4 -17 9 -6 13 10 17 10 22 -3 3 -8 12 -15 20 -15 7 0 16 -6 19 -14 3 -8
16 -20 29 -27 21 -11 22 -11 8 5 -19 23 -126 106 -137 106 -4 0 -2 -4 6 -9z"/>
<path d="M10895 3169 c4 -13 14 -36 21 -51 8 -15 21 -54 28 -85 l14 -58 -2 56
c0 32 -3 53 -6 48 -4 -5 -14 16 -25 47 -18 53 -45 92 -30 43z"/>
<path d="M6984 3093 c4 -49 13 -126 21 -173 l12 -85 0 120 c0 75 -2 103 -6 75
-6 -44 -7 -43 -15 32 -4 42 -5 86 -1 98 4 12 2 20 -6 20 -9 0 -10 -22 -5 -87z"/>
<path d="M7504 3040 c0 -74 1 -105 3 -67 2 37 2 97 0 135 -2 37 -3 6 -3 -68z"/>
<path d="M10168 3158 c5 -5 16 -8 23 -6 8 3 3 7 -10 11 -17 4 -21 3 -13 -5z"/>
<path d="M6963 3110 c0 -25 2 -35 4 -22 2 12 2 32 0 45 -2 12 -4 2 -4 -23z"/>
<path d="M8413 3110 c0 -25 2 -35 4 -22 2 12 2 32 0 45 -2 12 -4 2 -4 -23z"/>
<path d="M8433 3030 l0 -125 7 95 c3 52 3 109 -1 125 -4 17 -7 -26 -6 -95z"/>
<path d="M8461 3134 c0 -11 3 -14 6 -6 3 7 2 16 -1 19 -3 4 -6 -2 -5 -13z"/>
<path d="M9767 3139 c7 -7 15 -10 18 -7 3 3 -2 9 -12 12 -14 6 -15 5 -6 -5z"/>
<path d="M9918 3143 c45 -2 119 -2 165 0 45 1 8 3 -83 3 -91 0 -128 -2 -82 -3z"/>
<path d="M10010 3120 l-175 -6 188 -2 c103 -1 187 0 187 2 0 10 -36 11 -200 6z"/>
<path d="M4207 3113 c-4 -3 -7 -16 -6 -27 0 -21 1 -21 9 -1 7 17 9 17 9 3 1
-10 6 -18 11 -18 7 0 7 8 -1 23 -15 29 -15 28 -22 20z"/>
<path d="M9788 3113 c7 -3 16 -2 19 1 4 3 -2 6 -13 5 -11 0 -14 -3 -6 -6z"/>
<path d="M10228 3113 c7 -3 16 -2 19 1 4 3 -2 6 -13 5 -11 0 -14 -3 -6 -6z"/>
<path d="M4172 3090 c0 -14 2 -19 5 -12 2 6 2 18 0 25 -3 6 -5 1 -5 -13z"/>
<path d="M10275 3100 c4 -6 11 -8 16 -5 14 9 11 15 -7 15 -8 0 -12 -5 -9 -10z"/>
<path d="M10025 3090 c121 -3 227 -9 235 -14 13 -9 13 -8 1 7 -12 15 -37 17
-235 15 l-221 -2 220 -6z"/>
<path d="M9768 3083 c7 -3 16 -2 19 1 4 3 -2 6 -13 5 -11 0 -14 -3 -6 -6z"/>
<path d="M10310 3067 c27 -15 36 -14 25 2 -3 6 -16 11 -28 11 -21 0 -21 -1 3
-13z"/>
<path d="M4745 3049 c-10 -30 -2 -32 12 -3 6 13 7 24 3 24 -5 0 -12 -9 -15
-21z"/>
<path d="M4775 3036 c-4 -20 -11 -36 -16 -36 -4 0 -2 -19 6 -42 8 -24 16 -52
18 -63 3 -11 5 3 5 30 0 28 2 64 6 80 5 25 4 25 -5 -4 -14 -46 -20 -35 -8 18
5 24 8 46 5 48 -3 3 -8 -11 -11 -31z"/>
<path d="M5494 2970 c0 -58 1 -81 3 -52 2 28 2 76 0 105 -2 28 -3 5 -3 -53z"/>
<path d="M8450 3055 c0 -8 2 -15 4 -15 2 0 6 7 10 15 3 8 1 15 -4 15 -6 0 -10
-7 -10 -15z"/>
<path d="M9772 3040 c0 -19 3 -57 8 -85 6 -40 7 -43 8 -15 0 19 -3 58 -8 85
-6 40 -7 43 -8 15z"/>
<path d="M10370 3050 c0 -5 6 -10 14 -10 14 0 32 -36 28 -53 -1 -5 2 -6 7 -3
5 4 16 -13 24 -36 9 -24 16 -35 16 -24 1 25 -49 115 -71 127 -12 6 -18 6 -18
-1z"/>
<path d="M8402 3010 c0 -14 2 -19 5 -12 2 6 2 18 0 25 -3 6 -5 1 -5 -13z"/>
<path d="M10350 3010 c0 -5 5 -10 10 -10 6 0 10 5 10 10 0 6 -4 10 -10 10 -5
0 -10 -4 -10 -10z"/>
<path d="M4251 2984 c0 -11 3 -14 6 -6 3 7 2 16 -1 19 -3 4 -6 -2 -5 -13z"/>
<path d="M4968 2948 c-3 -92 -3 -126 2 -121 6 6 11 163 5 163 -3 0 -6 -19 -7
-42z"/>
<path d="M4255 2932 c-4 -18 -4 -36 -1 -39 3 -4 7 5 7 18 1 21 2 21 9 -6 7
-27 8 -28 8 -5 0 14 -3 34 -7 45 -7 17 -9 16 -16 -13z"/>
<path d="M10406 2951 c-5 -8 -3 -16 4 -21 8 -5 17 -32 21 -62 6 -45 4 -56 -13
-73 -20 -20 -20 -20 -13 2 5 18 3 22 -9 17 -12 -5 -13 -10 -5 -25 5 -10 14
-19 19 -19 13 0 50 51 50 69 0 14 -2 14 -10 1 -7 -11 -10 -5 -10 25 -1 51 -23
105 -34 86z"/>
<path d="M6176 2925 c13 -55 25 -74 20 -31 -3 22 -10 44 -16 50 -8 8 -9 3 -4
-19z"/>
<path d="M10270 2933 c0 -13 -4 -23 -8 -23 -4 0 -6 -16 -4 -35 2 -19 8 -32 13
-29 5 3 6 17 3 31 -4 16 -2 28 6 33 9 6 10 12 1 26 -10 18 -10 18 -11 -3z"/>
<path d="M5631 2894 c0 -11 3 -14 6 -6 3 7 2 16 -1 19 -3 4 -6 -2 -5 -13z"/>
<path d="M5654 2888 c-5 -73 -11 -80 -40 -50 -17 16 -18 16 -11 -1 4 -12 1
-20 -9 -24 -13 -5 -13 -7 -2 -14 10 -7 9 -9 -4 -9 -10 0 -18 5 -18 10 0 6 -11
10 -24 10 -17 0 -27 8 -34 28 -7 18 -11 21 -11 9 -1 -24 47 -67 75 -67 46 0
72 18 83 57 6 21 11 46 11 56 0 25 -15 21 -16 -5z m-24 -78 c0 -5 -4 -10 -10
-10 -5 0 -10 5 -10 10 0 6 5 10 10 10 6 0 10 -4 10 -10z"/>
<path d="M6872 2880 c0 -19 2 -27 5 -17 2 9 2 25 0 35 -3 9 -5 1 -5 -18z"/>
<path d="M8230 2903 c0 -15 18 -35 23 -27 3 5 -1 15 -9 22 -8 7 -14 9 -14 5z"/>
<path d="M8258 2903 c6 -2 18 -2 25 0 6 3 1 5 -13 5 -14 0 -19 -2 -12 -5z"/>
<path d="M8413 2870 c0 -25 2 -35 4 -22 2 12 2 32 0 45 -2 12 -4 2 -4 -23z"/>
<path d="M8454 2815 c0 -55 1 -76 3 -47 2 29 2 74 0 100 -2 26 -3 2 -3 -53z"/>
<path d="M5601 2884 c0 -11 3 -14 6 -6 3 7 2 16 -1 19 -3 4 -6 -2 -5 -13z"/>
<path d="M6991 2868 c0 -20 -4 -38 -8 -41 -5 -2 -2 -2 5 -1 16 4 15 -7 -4 -34
-9 -13 -14 -26 -11 -29 3 -2 12 6 21 19 12 18 13 34 7 73 -8 46 -9 47 -10 13z"/>
<path d="M10461 2874 c0 -11 3 -14 6 -6 3 7 2 16 -1 19 -3 4 -6 -2 -5 -13z"/>
<path d="M6845 2859 c9 -29 35 -60 35 -41 0 7 -4 12 -10 12 -5 0 -10 9 -10 19
0 11 -5 23 -11 27 -8 4 -9 -1 -4 -17z"/>
<path d="M7693 2835 c0 -27 2 -38 4 -22 2 15 2 37 0 50 -2 12 -4 0 -4 -28z"/>
<path d="M8293 2858 c12 -13 24 -19 25 -15 5 11 -18 37 -34 37 -9 0 -5 -8 9
-22z"/>
<path d="M9781 2865 c-1 -11 -4 -31 -6 -45 -5 -22 -4 -22 4 -5 9 19 10 19 10
-4 1 -14 5 -38 11 -55 5 -17 12 -44 16 -61 4 -16 9 -24 11 -17 3 7 -2 36 -11
65 -8 28 -20 72 -25 97 -5 25 -9 36 -10 25z"/>
<path d="M10290 2860 c0 -5 7 -10 15 -10 8 0 15 5 15 10 0 6 -7 10 -15 10 -8
0 -15 -4 -15 -10z"/>
<path d="M10952 2850 c0 -14 2 -19 5 -12 2 6 2 18 0 25 -3 6 -5 1 -5 -13z"/>
<path d="M6171 2844 c0 -11 3 -14 6 -6 3 7 2 16 -1 19 -3 4 -6 -2 -5 -13z"/>
<path d="M4291 2841 c0 -7 -7 -11 -16 -7 -8 3 -15 1 -15 -4 0 -6 7 -10 15 -10
8 0 17 -14 21 -35 3 -19 10 -35 15 -35 5 0 9 -7 9 -17 0 -9 3 -14 6 -10 4 3 3
14 -2 24 -4 10 -13 38 -20 63 -6 25 -12 39 -13 31z"/>
<path d="M4812 2798 c6 -18 17 -46 24 -63 11 -26 13 -27 13 -7 1 12 -3 22 -9
22 -5 0 -10 11 -10 24 0 30 -9 56 -20 56 -5 0 -4 -15 2 -32z"/>
<path d="M4840 2820 c0 -5 5 -10 10 -10 6 0 10 5 10 10 0 6 -4 10 -10 10 -5 0
-10 -4 -10 -10z"/>
<path d="M4872 2798 c-1 -20 -5 -45 -8 -55 -5 -17 -5 -17 6 0 6 9 9 34 7 55
l-4 37 -1 -37z"/>
<path d="M5568 2823 c7 -3 16 -2 19 1 4 3 -2 6 -13 5 -11 0 -14 -3 -6 -6z"/>
<path d="M7500 2819 c0 -5 5 -7 10 -4 6 3 10 8 10 11 0 2 -4 4 -10 4 -5 0 -10
-5 -10 -11z"/>
<path d="M8386 2815 c4 -8 8 -15 10 -15 2 0 4 7 4 15 0 8 -4 15 -10 15 -5 0
-7 -7 -4 -15z"/>
<path d="M8433 2790 c0 -25 2 -35 4 -22 2 12 2 32 0 45 -2 12 -4 2 -4 -23z"/>
<path d="M8985 2813 c11 -10 27 -28 36 -40 l15 -22 40 41 c26 27 31 37 16 29
-12 -7 -28 -21 -35 -31 -11 -19 -12 -19 -32 3 -11 13 -29 26 -40 30 -20 7 -20
7 0 -10z"/>
<path d="M10280 2819 c0 -5 5 -7 10 -4 6 3 10 8 10 11 0 2 -4 4 -10 4 -5 0
-10 -5 -10 -11z"/>
<path d="M4241 2804 c0 -11 3 -14 6 -6 3 7 2 16 -1 19 -3 4 -6 -2 -5 -13z"/>
<path d="M4981 2785 c-1 -30 -4 -36 -11 -25 -14 21 -11 1 6 -40 l14 -35 -6 33
c-8 46 10 40 25 -8 6 -22 16 -40 21 -40 5 0 -1 21 -12 48 -12 26 -25 61 -29
77 -7 29 -7 28 -8 -10z"/>
<path d="M6840 2813 c0 -11 26 -43 36 -43 2 0 4 8 4 17 0 9 -3 13 -7 10 -3 -4
-12 1 -19 11 -7 9 -14 12 -14 5z"/>
<path d="M10938 2772 c-3 -24 -17 -66 -31 -93 -13 -28 -20 -48 -15 -47 17 6
59 121 56 153 -3 26 -4 24 -10 -13z"/>
<path d="M4260 2788 c0 -7 5 -20 10 -28 8 -12 10 -11 10 7 0 12 -4 25 -10 28
-5 3 -10 0 -10 -7z"/>
<path d="M6331 2784 c0 -11 3 -14 6 -6 3 7 2 16 -1 19 -3 4 -6 -2 -5 -13z"/>
<path d="M7482 2755 c-7 -26 -11 -50 -8 -52 7 -7 28 65 24 84 -2 9 -9 -5 -16
-32z"/>
<path d="M9090 2785 c-7 -8 -8 -15 -2 -15 5 0 15 7 22 15 7 8 8 15 2 15 -5 0
-15 -7 -22 -15z"/>
<path d="M10302 2783 c6 -8 13 -11 16 -8 3 3 14 -2 24 -12 17 -15 18 -15 18 4
0 16 -8 22 -35 25 -27 3 -32 1 -23 -9z"/>
<path d="M8980 2780 c0 -5 5 -10 11 -10 5 0 7 5 4 10 -3 6 -8 10 -11 10 -2 0
-4 -4 -4 -10z"/>
<path d="M7512 2755 c0 -16 2 -22 5 -12 2 9 2 23 0 30 -3 6 -5 -1 -5 -18z"/>
<path d="M7706 2725 c3 -43 2 -56 -5 -45 -6 8 -11 24 -12 35 0 12 -3 15 -6 7
-3 -7 0 -26 7 -42 11 -26 14 -27 27 -15 8 8 12 19 8 25 -3 5 -10 29 -15 52 -8
39 -9 37 -4 -17z"/>
<path d="M6152 2750 c0 -14 2 -19 5 -12 2 6 2 18 0 25 -3 6 -5 1 -5 -13z"/>
<path d="M8350 2760 c0 -5 7 -10 16 -10 8 0 12 5 9 10 -3 6 -10 10 -16 10 -5
0 -9 -4 -9 -10z"/>
<path d="M6341 2750 c-2 -28 34 -106 62 -135 29 -32 35 -50 15 -42 -9 3 -13
-6 -13 -26 0 -18 6 -32 15 -34 13 -4 13 -3 0 6 -8 5 -11 13 -7 17 4 4 16 -1
27 -11 11 -10 23 -16 26 -12 3 3 -3 12 -15 19 -12 7 -21 19 -21 27 0 11 5 10
23 -5 41 -37 62 -47 26 -13 -63 60 -106 127 -133 209 -4 13 -5 13 -5 0z"/>
<path d="M8410 2728 c0 -15 5 -30 10 -33 13 -8 13 25 0 45 -8 12 -10 9 -10
-12z"/>
<path d="M9781 2703 c-1 -18 4 -33 9 -33 12 0 12 17 0 45 -7 17 -9 15 -9 -12z"/>
<path d="M4871 2704 c0 -11 3 -14 6 -6 3 7 2 16 -1 19 -3 4 -6 -2 -5 -13z"/>
<path d="M10947 2698 c-3 -12 -3 -28 1 -35 5 -8 8 0 9 22 1 40 -2 44 -10 13z"/>
<path d="M4334 2683 c3 -18 9 -47 12 -63 6 -27 4 -30 -12 -23 -17 6 -17 5 -5
-11 11 -13 16 -14 23 -4 5 8 6 -5 2 -29 -4 -26 -3 -43 3 -43 6 0 9 12 6 28 -3
24 -2 25 7 7 12 -23 11 -19 -16 95 -16 67 -32 100 -20 43z"/>
<path d="M6117 2675 c-9 -18 -26 -45 -38 -59 -13 -15 -23 -35 -24 -46 -2 -23
10 -27 19 -5 3 8 0 15 -7 15 -7 0 1 10 17 23 15 13 34 40 42 62 17 50 12 55
-9 10z"/>
<path d="M6328 2689 c-2 -14 2 -31 10 -38 9 -9 11 -23 7 -39 -5 -21 -4 -23 8
-14 10 9 16 9 25 0 9 -9 12 -8 12 5 0 9 -6 17 -14 17 -7 0 -20 21 -28 47 -13
40 -16 43 -20 22z"/>
<path d="M8460 2700 c0 -5 5 -10 10 -10 6 0 10 5 10 10 0 6 -4 10 -10 10 -5 0
-10 -4 -10 -10z"/>
<path d="M4852 2685 c0 -11 3 -29 8 -40 11 -25 11 1 0 35 -6 20 -8 21 -8 5z"/>
<path d="M7511 2684 c0 -11 3 -14 6 -6 3 7 2 16 -1 19 -3 4 -6 -2 -5 -13z"/>
<path d="M9840 2665 c0 -6 7 -21 16 -33 8 -12 17 -32 19 -44 5 -25 14 -35 34
-40 8 -2 23 -11 33 -20 10 -10 24 -18 31 -18 15 0 -30 37 -61 50 -13 6 -22 16
-20 22 1 7 -10 31 -25 53 -15 22 -27 35 -27 30z"/>
<path d="M5040 2655 c0 -14 47 -71 53 -65 3 3 -8 21 -24 40 -16 19 -29 30 -29
25z"/>
<path d="M10920 2641 c0 -11 -5 -23 -10 -26 -6 -4 -7 -11 -4 -17 4 -6 12 -1
20 13 16 29 18 49 4 49 -5 0 -10 -9 -10 -19z"/>
<path d="M7682 2620 c0 -19 2 -27 5 -17 2 9 2 25 0 35 -3 9 -5 1 -5 -18z"/>
<path d="M7723 2638 c-16 -21 -23 -48 -13 -48 6 0 10 7 10 16 0 14 3 14 15 4
12 -10 15 -10 15 1 0 8 -4 20 -9 27 -6 11 -10 11 -18 0z"/>
<path d="M6322 2620 c0 -14 2 -19 5 -12 2 6 2 18 0 25 -3 6 -5 1 -5 -13z"/>
<path d="M7405 2595 c-29 -42 -104 -105 -126 -105 -6 0 -8 -4 -5 -9 8 -13 46
-1 46 14 0 10 20 25 35 25 11 0 -11 -43 -28 -55 -27 -19 -42 -19 -60 -1 -9 9
-19 11 -28 5 -11 -7 -10 -9 6 -9 14 0 16 -3 8 -8 -8 -5 2 -9 25 -9 49 -2 78
18 86 60 4 19 13 38 21 41 9 3 20 17 25 31 6 15 13 24 17 22 5 -3 9 6 9 19 1
13 1 24 0 24 0 0 -14 -20 -31 -45z"/>
<path d="M10951 2624 c0 -11 3 -14 6 -6 3 7 2 16 -1 19 -3 4 -6 -2 -5 -13z"/>
<path d="M8483 2615 c-3 -9 -3 -18 -1 -21 3 -3 8 4 11 16 6 23 -1 27 -10 5z"/>
<path d="M10836 2573 c-21 -23 -61 -57 -90 -73 -28 -17 -40 -28 -26 -24 14 3
32 12 40 19 8 7 22 10 30 7 8 -2 12 -1 8 3 -4 4 9 21 28 37 32 29 60 67 52 72
-2 1 -20 -17 -42 -41z"/>
<path d="M7763 2568 c1 -23 4 -33 9 -25 6 9 13 6 26 -9 9 -12 28 -25 42 -29
23 -6 23 -5 -5 13 -32 21 -59 50 -67 73 -3 8 -5 -3 -5 -23z"/>
<path d="M8500 2591 c0 -12 68 -102 89 -118 33 -25 34 -12 1 20 -18 17 -44 49
-58 70 -25 38 -32 44 -32 28z"/>
<path d="M4915 2550 c4 -33 3 -41 -4 -30 -13 18 -14 1 -2 -18 7 -11 10 -10 15
3 9 25 7 58 -5 75 -7 11 -8 3 -4 -30z"/>
<path d="M4942 2580 c0 -8 4 -26 8 -40 6 -20 8 -21 8 -5 0 11 -3 29 -8 40 -5
12 -8 14 -8 5z"/>
<path d="M4886 2572 c-2 -4 -1 -14 5 -22 7 -12 9 -10 9 8 0 23 -5 28 -14 14z"/>
<path d="M8480 2570 c0 -21 17 -46 25 -38 4 4 0 17 -9 30 -10 14 -16 17 -16 8z"/>
<path d="M5122 2560 c5 -16 56 -56 62 -49 3 3 -11 18 -31 33 -20 16 -34 23
-31 16z"/>
<path d="M6005 2544 l-30 -25 33 17 c17 10 32 22 32 26 0 12 -2 11 -35 -18z"/>
<path d="M10850 2540 l-26 -27 26 1 c20 1 25 6 26 29 1 15 1 26 0 26 -1 -1
-12 -14 -26 -29z"/>
<path d="M4321 2550 c0 -8 4 -22 9 -30 12 -18 12 -2 0 25 -6 13 -9 15 -9 5z"/>
<path d="M7422 2538 c-7 -7 -12 -16 -12 -21 0 -5 7 -1 16 8 9 9 14 18 12 20
-2 3 -10 -1 -16 -7z"/>
<path d="M9840 2544 c0 -3 7 -12 15 -21 20 -19 32 -9 15 12 -12 15 -30 20 -30
9z"/>
<path d="M6062 2524 c-7 -8 -8 -14 -3 -14 10 0 25 19 20 25 -2 1 -10 -3 -17
-11z"/>
<path d="M5997 2513 c-4 -3 -7 -16 -7 -28 0 -11 -6 -27 -12 -34 -11 -10 -10
-11 3 -6 10 4 19 21 21 41 4 37 4 37 -5 27z"/>
<path d="M9066 2484 c-26 -19 -45 -34 -41 -34 15 0 84 44 89 57 3 7 4 13 3 12
-1 -1 -24 -16 -51 -35z"/>
<path d="M4940 2475 c0 -19 2 -35 4 -35 2 0 6 16 8 35 2 19 0 35 -4 35 -4 0
-8 -16 -8 -35z"/>
<path d="M6520 2500 c0 -4 23 -19 50 -33 28 -14 50 -23 50 -19 0 4 -23 19 -50
33 -28 15 -50 23 -50 19z"/>
<path d="M8385 2500 c-3 -5 -1 -10 4 -10 6 0 11 5 11 10 0 6 -2 10 -4 10 -3 0
-8 -4 -11 -10z"/>
<path d="M5935 2489 c-4 -6 -5 -12 -2 -15 7 -7 37 7 37 17 0 13 -27 11 -35 -2z"/>
<path d="M9130 2490 c1 -18 29 -70 30 -54 0 7 -7 25 -15 40 -8 16 -15 22 -15
14z"/>
<path d="M10000 2491 c0 -9 80 -45 86 -38 2 2 -17 13 -41 25 -25 12 -45 18
-45 13z"/>
<path d="M5235 2480 c27 -12 43 -12 25 0 -8 5 -22 9 -30 9 -10 0 -8 -3 5 -9z"/>
<path d="M6490 2482 c0 -4 9 -13 20 -20 11 -7 20 -9 20 -4 0 4 -9 13 -20 20
-11 7 -20 9 -20 4z"/>
<path d="M7895 2476 c35 -16 103 -32 93 -21 -3 4 -21 10 -40 14 -18 5 -44 11
-58 14 -20 5 -19 4 5 -7z"/>
<path d="M10741 2465 c-35 -17 -41 -23 -27 -28 10 -4 15 -3 11 3 -3 6 3 10 15
10 12 0 18 -4 15 -10 -3 -5 -1 -10 4 -10 6 0 11 9 11 19 0 11 6 21 13 24 6 2
10 6 7 9 -3 2 -25 -5 -49 -17z"/>
<path d="M4912 2455 c0 -16 2 -22 5 -12 2 9 2 23 0 30 -3 6 -5 -1 -5 -18z"/>
<path d="M8362 2455 c0 -16 2 -22 5 -12 2 9 2 23 0 30 -3 6 -5 -1 -5 -18z"/>
<path d="M9090 2460 c-14 -11 -20 -20 -15 -19 13 0 50 28 44 33 -2 3 -15 -4
-29 -14z"/>
<path d="M3680 2454 c0 -8 5 -12 10 -9 6 4 8 11 5 16 -9 14 -15 11 -15 -7z"/>
<path d="M4456 2462 c-2 -4 -1 -14 5 -22 7 -12 9 -10 9 8 0 23 -5 28 -14 14z"/>
<path d="M5855 2460 c-14 -6 -16 -9 -5 -11 8 -1 -5 -5 -30 -9 l-45 -7 45 -1
c44 -1 108 16 67 17 -10 1 -15 6 -12 11 7 11 7 11 -20 0z"/>
<path d="M8341 2465 c-1 -6 -64 -10 -168 -10 l-168 1 154 -3 c94 -2 160 -8
168 -15 17 -14 26 -5 20 19 -3 10 -5 14 -6 8z"/>
<path d="M9620 2459 c0 -5 5 -7 10 -4 6 3 10 8 10 11 0 2 -4 4 -10 4 -5 0 -10
-5 -10 -11z"/>
<path d="M3726 2451 c-4 -7 -5 -15 -2 -18 9 -9 19 4 14 18 -4 11 -6 11 -12 0z"/>
<path d="M4112 2448 c5 -15 28 -23 28 -10 0 5 -7 13 -16 16 -10 4 -14 1 -12
-6z"/>
<path d="M4426 2451 c-4 -7 -5 -15 -2 -18 9 -9 19 4 14 18 -4 11 -6 11 -12 0z"/>
<path d="M4880 2449 c0 -5 5 -7 10 -4 6 3 10 8 10 11 0 2 -4 4 -10 4 -5 0 -10
-5 -10 -11z"/>
<path d="M5265 2445 l-50 -14 45 6 c25 3 52 9 60 14 20 11 5 10 -55 -6z"/>
<path d="M5913 2445 c0 -8 4 -15 9 -15 4 0 8 4 8 9 0 6 -4 12 -8 15 -5 3 -9
-1 -9 -9z"/>
<path d="M6553 2445 c0 -7 6 -11 14 -8 7 3 13 6 13 8 0 2 -6 5 -13 8 -8 3 -14
-1 -14 -8z"/>
<path d="M7852 2451 c-10 -6 -8 -10 9 -14 13 -4 25 -4 28 -2 2 3 -1 5 -8 5 -7
0 -9 5 -6 10 8 12 -5 13 -23 1z"/>
<path d="M8380 2445 c0 -8 2 -15 4 -15 2 0 6 7 10 15 3 8 1 15 -4 15 -6 0 -10
-7 -10 -15z"/>
<path d="M9385 2450 l220 -5 -220 -5 -220 -5 223 -3 c192 -2 222 0 222 13 0
13 -30 15 -222 13 l-223 -2 220 -6z"/>
<path d="M9646 2445 c-3 -8 -1 -15 4 -15 6 0 10 7 10 15 0 8 -2 15 -4 15 -2 0
-6 -7 -10 -15z"/>
<path d="M10610 2444 c-22 -8 -28 -13 -15 -13 11 0 34 6 50 14 38 17 11 17
-35 -1z"/>
<path d="M6650 2440 c8 -5 24 -10 34 -10 26 0 18 6 -19 14 -22 5 -26 4 -15 -4z"/>
<path d="M7910 2440 c8 -5 28 -10 44 -10 39 0 30 6 -19 13 -27 4 -35 3 -25 -3z"/>
<path d="M8580 2440 c0 -5 5 -10 10 -10 6 0 10 5 10 10 0 6 -4 10 -10 10 -5 0
-10 -4 -10 -10z"/>
<path d="M8650 2440 c8 -5 22 -9 30 -9 10 0 8 3 -5 9 -27 12 -43 12 -25 0z"/>
<path d="M8970 2440 l-35 -7 32 -2 c17 0 35 4 38 9 3 6 5 9 3 9 -2 -1 -19 -5
-38 -9z"/>
<path d="M9110 2440 c-13 -8 -12 -10 3 -10 9 0 17 5 17 10 0 12 -1 12 -20 0z"/>
<path d="M10030 2440 c8 -5 22 -9 30 -9 10 0 8 3 -5 9 -27 12 -43 12 -25 0z"/>
<path d="M5378 2433 c7 -3 16 -2 19 1 4 3 -2 6 -13 5 -11 0 -14 -3 -6 -6z"/>
<path d="M7143 2433 c9 -2 23 -2 30 0 6 3 -1 5 -18 5 -16 0 -22 -2 -12 -5z"/>
<path d="M10088 2433 c7 -3 16 -2 19 1 4 3 -2 6 -13 5 -11 0 -14 -3 -6 -6z"/>
<path d="M10668 2433 c7 -3 16 -2 19 1 4 3 -2 6 -13 5 -11 0 -14 -3 -6 -6z"/>
<path d="M5633 2413 c-18 -2 -33 -9 -33 -14 0 -5 12 -6 28 -3 27 7 66 25 47
22 -5 -1 -25 -3 -42 -5z"/>
<path d="M10255 2410 c19 -8 73 -14 64 -6 -2 2 -22 6 -44 9 -28 5 -34 4 -20
-3z"/>
<path d="M10362 2408 c-9 -4 13 -7 51 -7 37 -1 67 2 67 7 0 9 -95 9 -118 0z"/>
<path d="M5533 2403 c9 -2 23 -2 30 0 6 3 -1 5 -18 5 -16 0 -22 -2 -12 -5z"/>
<path d="M6863 2403 c20 -2 54 -2 75 0 20 2 3 4 -38 4 -41 0 -58 -2 -37 -4z"/>
<path d="M8790 2400 c-12 -8 -10 -10 10 -10 14 0 32 5 40 10 12 8 10 10 -10
10 -14 0 -32 -5 -40 -10z"/>
<path d="M6808 2383 c6 -2 18 -2 25 0 6 3 1 5 -13 5 -14 0 -19 -2 -12 -5z"/>
<path d="M6943 2383 c15 -2 39 -2 55 0 15 2 2 4 -28 4 -30 0 -43 -2 -27 -4z"/>
<path d="M10248 2383 c7 -3 16 -2 19 1 4 3 -2 6 -13 5 -11 0 -14 -3 -6 -6z"/>
<path d="M10321 2386 c2 -2 29 -6 59 -9 34 -3 47 -2 35 3 -19 8 -103 14 -94 6z"/>
<path d="M5650 2370 c0 -5 7 -10 15 -10 8 0 15 5 15 10 0 6 -7 10 -15 10 -8 0
-15 -4 -15 -10z"/>
<path d="M8860 2370 c0 -5 5 -10 10 -10 6 0 10 5 10 10 0 6 -4 10 -10 10 -5 0
-10 -4 -10 -10z"/>
<path d="M5528 2363 c6 -2 18 -2 25 0 6 3 1 5 -13 5 -14 0 -19 -2 -12 -5z"/>
<path d="M6833 2363 c9 -2 25 -2 35 0 9 3 1 5 -18 5 -19 0 -27 -2 -17 -5z"/>
<path d="M6938 2363 c7 -3 16 -2 19 1 4 3 -2 6 -13 5 -11 0 -14 -3 -6 -6z"/>
<path d="M7003 2363 c9 -2 23 -2 30 0 6 3 -1 5 -18 5 -16 0 -22 -2 -12 -5z"/>
<path d="M10268 2363 c12 -2 30 -2 40 0 9 3 -1 5 -23 4 -22 0 -30 -2 -17 -4z"/>
<path d="M6743 2343 c104 -2 270 -2 370 0 100 1 16 2 -188 2 -203 0 -285 -1
-182 -2z"/>
<path d="M7340 2340 c0 -5 5 -10 11 -10 5 0 7 5 4 10 -3 6 -8 10 -11 10 -2 0
-4 -4 -4 -10z"/>
<path d="M9925 2340 c-3 -5 -2 -10 4 -10 5 0 13 5 16 10 3 6 2 10 -4 10 -5 0
-13 -4 -16 -10z"/>
<path d="M10778 2343 c7 -3 16 -2 19 1 4 3 -2 6 -13 5 -11 0 -14 -3 -6 -6z"/>
<path d="M9922 2300 c0 -14 2 -19 5 -12 2 6 2 18 0 25 -3 6 -5 1 -5 -13z"/>
<path d="M7354 2140 c0 -74 1 -105 3 -67 2 37 2 97 0 135 -2 37 -3 6 -3 -68z"/>
<path d="M9924 2140 c0 -74 1 -105 3 -67 2 37 2 97 0 135 -2 37 -3 6 -3 -68z"/>
<path d="M7345 1990 c-3 -5 -1 -10 4 -10 6 0 11 5 11 10 0 6 -2 10 -4 10 -3 0
-8 -4 -11 -10z"/>
<path d="M9920 1990 c0 -5 5 -10 11 -10 5 0 7 5 4 10 -3 6 -8 10 -11 10 -2 0
-4 -4 -4 -10z"/>
<path d="M6525 1970 c3 -5 8 -10 11 -10 2 0 4 5 4 10 0 6 -5 10 -11 10 -5 0
-7 -4 -4 -10z"/>
<path d="M6914 1973 c273 -3 362 -6 368 -16 5 -8 8 -7 8 6 0 16 -23 17 -367
15 l-368 -3 359 -2z"/>
<path d="M7300 1971 c0 -6 5 -13 10 -16 6 -3 10 1 10 9 0 9 -4 16 -10 16 -5 0
-10 -4 -10 -9z"/>
<path d="M9946 1970 c-19 -6 -19 -7 2 -12 12 -4 24 -2 27 2 8 13 -8 18 -29 10z"/>
<path d="M9997 1973 c-4 -3 -7 -11 -7 -17 0 -7 3 -6 8 1 6 10 103 13 408 16
l399 2 -401 3 c-220 1 -404 -1 -407 -5z"/>
</g>
</svg>
